<?xml version="1.0" standalone="no"?>
<!DOCTYPE svg PUBLIC "-//W3C//DTD SVG 20010904//EN"
 "http://www.w3.org/TR/2001/REC-SVG-20010904/DTD/svg10.dtd">
<svg version="1.0" xmlns="http://www.w3.org/2000/svg"
 width="1024.000000pt" height="1024.000000pt" viewBox="0 0 1024.000000 1024.000000"
 preserveAspectRatio="xMidYMid meet">

<g transform="translate(0.000000,1024.000000) scale(0.100000,-0.100000)"
fill="#000000" stroke="none">
<path d="M4030 9263 c-158 -13 -423 -75 -533 -126 -343 -159 -527 -442 -487
-750 35 -272 326 -546 675 -638 226 -60 491 -80 680 -50 84 13 172 37 192 53
8 7 24 -1 50 -27 37 -36 182 -144 309 -231 117 -79 186 -91 221 -38 16 25 15
28 -17 102 -31 74 -101 278 -114 334 -5 22 -1 30 27 47 59 37 200 200 241 279
36 70 58 168 59 257 1 113 -14 177 -65 284 -77 161 -287 337 -498 417 -183 70
-497 106 -740 87z m630 -415 c11 -18 34 -67 51 -108 17 -41 34 -78 38 -82 3
-4 40 -12 81 -18 99 -15 138 -28 150 -50 17 -31 -4 -62 -85 -128 -42 -35 -75
-69 -72 -75 2 -7 12 -58 22 -114 17 -96 17 -104 1 -128 -10 -14 -26 -25 -39
-25 -13 0 -65 25 -117 56 l-95 56 -30 -18 c-83 -50 -152 -84 -172 -84 -13 0
-29 11 -39 25 -15 24 -16 31 -1 88 9 34 20 82 26 106 l10 43 -75 72 c-56 54
-74 78 -74 99 0 42 34 58 181 82 32 5 38 11 54 53 24 64 64 143 83 165 9 10
29 17 49 17 27 0 37 -6 53 -32z m-870 -40 c15 -35 33 -81 39 -103 18 -65 20
-66 131 -75 108 -10 130 -19 130 -55 0 -30 -30 -66 -100 -120 l-58 -44 14 -63
c7 -35 20 -86 27 -113 17 -62 8 -95 -26 -95 -13 0 -66 25 -117 56 -84 51 -96
55 -114 43 -80 -51 -181 -109 -191 -109 -18 0 -38 27 -37 53 0 12 10 65 22
117 l23 94 -43 36 c-98 80 -130 116 -130 147 0 40 26 50 139 59 l90 7 41 96
c49 112 63 131 102 131 26 0 32 -7 58 -62z"/>
<path d="M6571 8844 c-11 -14 -23 -46 -26 -72 -16 -125 -42 -181 -83 -182
-167 -5 -240 -48 -208 -124 19 -45 35 -52 129 -61 119 -11 138 -33 167 -187 9
-44 18 -63 42 -83 67 -57 115 -10 125 121 8 108 29 130 138 145 92 13 117 25
135 69 27 66 -18 103 -139 114 -41 3 -81 12 -88 18 -27 22 -42 65 -52 149 -12
95 -29 119 -86 119 -24 0 -39 -7 -54 -26z"/>
<path d="M5858 8429 c-21 -12 -38 -68 -39 -129 -1 -102 -24 -127 -120 -129
-64 -1 -104 -18 -118 -47 -17 -39 -13 -61 17 -94 22 -24 40 -32 97 -40 38 -6
77 -18 87 -27 21 -19 34 -60 43 -131 11 -88 67 -133 125 -102 29 16 40 43 50
127 11 101 30 121 126 133 59 7 73 13 96 39 35 39 36 80 3 111 -19 18 -43 25
-109 33 -82 10 -86 12 -101 42 -8 18 -17 58 -21 91 -7 73 -21 112 -45 124 -23
13 -69 12 -91 -1z"/>
<path d="M7266 8241 c-10 -11 -18 -43 -22 -87 -9 -122 -2 -114 -98 -114 -69 0
-88 -4 -110 -21 -34 -27 -35 -71 -2 -104 22 -22 46 -28 161 -37 29 -3 30 -5
42 -82 14 -89 31 -116 78 -116 52 0 69 29 73 120 l4 78 37 6 c20 3 56 6 81 6
55 0 86 20 95 60 15 68 -28 100 -134 100 -73 0 -81 10 -81 104 0 53 -4 70 -20
86 -26 26 -81 26 -104 1z"/>
<path d="M2496 7678 c-9 -12 -16 -39 -16 -60 l0 -38 -48 0 c-53 0 -82 -20 -82
-58 0 -37 26 -52 91 -52 59 0 59 0 59 -29 0 -50 9 -61 49 -61 47 0 61 14 61
62 l0 38 43 0 c54 0 87 22 87 59 0 34 -14 41 -79 41 l-48 0 -7 46 c-3 26 -11
53 -17 60 -19 23 -76 17 -93 -8z"/>
<path d="M3750 7404 c-357 -44 -844 -177 -879 -241 -5 -11 -13 -66 -17 -122
-9 -125 6 -115 -222 -147 -45 -7 -68 -33 -76 -85 -3 -24 -17 -179 -31 -344
-14 -165 -34 -394 -45 -510 -11 -115 -26 -304 -35 -420 -32 -430 -36 -483 -50
-620 -8 -77 -19 -212 -25 -300 -12 -179 -33 -424 -55 -650 -8 -82 -15 -172
-15 -200 0 -67 27 -111 77 -124 50 -14 91 -2 213 59 220 109 532 211 752 244
316 48 786 48 998 0 162 -36 347 -107 471 -180 155 -91 290 -153 362 -168 118
-25 176 -7 418 126 330 182 495 230 919 269 421 38 1006 -87 1415 -301 115
-61 151 -68 202 -44 53 27 76 73 69 144 -22 215 -37 374 -46 495 -6 77 -15
190 -20 250 -24 262 -52 626 -75 965 -65 966 -95 1344 -109 1365 -20 30 -76
55 -123 55 -37 0 -153 16 -159 23 -2 1 -6 34 -9 72 -13 157 -12 154 -62 185
-93 59 -352 135 -623 182 -116 20 -167 23 -370 23 -198 -1 -255 -4 -360 -23
-255 -46 -479 -115 -670 -208 -120 -59 -310 -178 -310 -194 0 -18 -22 -10 -63
24 -95 77 -331 209 -467 261 -217 84 -491 135 -760 140 -102 2 -201 1 -220 -1z
m535 -208 c114 -21 333 -87 452 -136 99 -41 150 -72 316 -188 l107 -75 0
-1173 c0 -646 -2 -1174 -5 -1174 -2 0 -60 29 -127 65 -328 175 -820 286 -1198
272 -283 -11 -475 -47 -821 -152 -81 -25 -150 -45 -154 -45 -5 0 -5 33 -2 73
4 39 14 149 22 242 8 94 19 208 25 255 5 47 14 159 20 250 5 91 14 221 19 290
5 69 15 208 21 310 6 102 20 295 31 430 11 135 25 328 32 429 l12 183 125 40
c214 67 354 97 560 122 88 10 478 -2 565 -18z m2510 14 c147 -14 341 -53 500
-102 72 -22 138 -42 147 -45 22 -7 26 -28 38 -233 6 -96 13 -193 15 -215 13
-103 56 -715 65 -930 6 -132 15 -301 20 -375 28 -376 42 -541 50 -600 5 -36
10 -77 10 -92 l0 -27 -67 26 c-139 53 -448 135 -623 165 -47 8 -169 13 -330
13 -268 0 -346 -9 -590 -66 -185 -43 -392 -123 -586 -228 -60 -32 -110 -58
-112 -56 -1 1 -3 536 -4 1189 l-1 1186 94 66 c176 122 391 212 679 283 69 17
157 35 195 40 100 12 371 13 500 1z m-3965 -477 c-1 -93 -98 -1495 -110 -1588
-5 -44 -19 -192 -30 -330 -11 -137 -23 -263 -26 -280 -2 -16 -9 -100 -15 -185
-6 -85 -13 -181 -16 -212 -3 -43 -1 -59 9 -63 7 -3 56 6 108 20 52 13 124 31
160 40 36 9 108 27 160 40 156 40 322 74 426 87 119 14 678 14 744 -1 25 -5
74 -17 110 -26 35 -9 97 -20 137 -26 97 -13 337 -96 463 -159 78 -39 126 -56
203 -71 56 -10 111 -16 122 -12 11 3 56 7 101 7 l80 1 85 56 c46 31 111 70
144 87 89 44 248 91 350 103 50 6 142 19 205 30 320 54 467 67 575 51 284 -42
620 -105 675 -128 55 -22 315 -94 341 -94 12 0 24 32 33 87 6 41 5 43 -31 62
-21 10 -76 32 -123 49 -47 16 -125 46 -175 65 -103 40 -426 110 -584 126 -131
14 -413 14 -539 1 -198 -21 -476 -72 -597 -109 -95 -28 -263 -106 -465 -216
-107 -58 -103 -58 -301 42 -246 126 -510 213 -774 255 -123 20 -175 23 -420
22 -212 -1 -303 -5 -375 -18 -132 -23 -385 -83 -445 -106 -64 -24 -254 -80
-271 -80 -24 0 4 64 44 100 77 69 422 187 672 231 317 54 770 23 1078 -75 59
-19 127 -40 152 -46 85 -23 262 -109 383 -188 67 -44 131 -82 143 -86 15 -5
50 13 135 68 325 210 498 276 868 333 152 24 206 27 391 27 232 -1 295 -8 495
-55 311 -74 399 -105 601 -215 46 -25 55 -27 79 -16 l28 13 -7 172 c-3 95 -11
213 -16 262 -28 254 -42 425 -55 675 -23 433 -71 1157 -82 1239 -5 39 -4 44 8
34 8 -6 31 -14 51 -18 44 -8 44 -10 53 -175 3 -63 13 -182 20 -265 8 -82 22
-269 30 -415 9 -146 20 -321 25 -390 66 -871 82 -1080 96 -1230 25 -267 30
-340 22 -340 -4 0 -29 13 -56 29 -27 16 -148 61 -269 100 -328 106 -638 154
-1003 154 -203 0 -323 -12 -505 -49 -248 -51 -429 -116 -600 -214 -60 -34
-125 -71 -143 -81 -55 -32 -150 -60 -180 -53 -58 12 -107 37 -221 109 -106 67
-139 82 -297 134 -180 59 -274 82 -504 122 -116 20 -145 21 -400 14 -323 -8
-366 -12 -610 -65 -260 -56 -254 -54 -474 -131 -109 -39 -200 -68 -203 -65 -3
2 0 51 6 108 6 57 18 195 26 308 9 113 24 300 35 415 11 116 27 307 35 425 9
118 24 321 35 450 16 192 72 912 82 1064 3 36 6 40 43 52 50 15 55 16 55 7z"/>
<path d="M3725 7005 c-217 -34 -511 -111 -535 -140 -13 -15 -6 -120 8 -129 4
-2 104 20 222 49 181 45 344 74 495 87 29 3 30 5 33 59 4 75 -10 89 -86 88
-31 -1 -93 -7 -137 -14z"/>
<path d="M4109 6993 c-14 -37 -2 -110 19 -122 10 -5 47 -14 82 -21 95 -16 422
-109 565 -159 44 -16 92 -32 108 -35 27 -6 27 -6 27 47 0 82 -31 104 -273 186
-166 57 -301 94 -413 116 -103 20 -103 20 -115 -12z"/>
<path d="M3800 6723 c-14 -2 -78 -13 -143 -24 -137 -22 -384 -91 -442 -122
-44 -25 -57 -58 -46 -124 5 -29 11 -39 28 -41 13 -2 99 22 192 52 133 44 208
62 350 84 100 16 187 34 193 40 6 6 13 34 16 63 4 43 2 55 -13 66 -18 12 -80
15 -135 6z"/>
<path d="M4120 6701 c-13 -24 -13 -82 -1 -114 12 -30 37 -39 191 -67 162 -30
243 -53 405 -116 78 -29 151 -54 162 -54 25 0 33 24 33 97 0 51 -1 53 -37 71
-90 46 -233 89 -592 183 -97 25 -147 25 -161 0z"/>
<path d="M3765 6304 c-241 -30 -581 -118 -607 -158 -18 -26 -5 -111 18 -120 8
-3 65 11 127 30 146 46 247 68 437 94 206 28 202 26 198 98 l-3 57 -70 1 c-38
1 -83 0 -100 -2z"/>
<path d="M4112 6298 c-18 -18 -15 -92 6 -117 13 -16 39 -24 117 -36 113 -17
335 -74 515 -134 67 -23 129 -41 139 -41 15 0 20 11 26 55 3 30 4 59 1 64 -6
9 -163 73 -257 104 -134 45 -454 117 -518 117 -9 0 -22 -5 -29 -12z"/>
<path d="M3640 5994 c-211 -33 -454 -106 -489 -147 -16 -20 -26 -87 -17 -122
6 -24 11 -26 39 -22 18 3 74 21 125 41 171 67 426 126 544 126 26 0 58 4 72
10 24 9 26 14 26 75 l0 65 -72 -1 c-40 -1 -143 -12 -228 -25z"/>
<path d="M4112 6003 c-13 -34 -8 -102 10 -119 10 -10 59 -24 125 -36 109 -19
372 -104 537 -173 127 -53 154 -36 129 85 -5 30 -15 37 -97 75 -133 62 -351
129 -514 159 -170 31 -181 31 -190 9z"/>
<path d="M4110 5545 c-15 -38 -12 -111 4 -124 8 -6 83 -23 167 -37 185 -31
357 -79 495 -139 57 -25 109 -45 117 -45 19 0 32 92 17 120 -13 24 -80 59
-200 106 -91 35 -448 127 -537 139 -51 7 -53 6 -63 -20z"/>
<path d="M3755 5543 c-195 -26 -594 -124 -632 -155 -8 -6 -13 -34 -13 -70 0
-71 10 -77 83 -55 29 8 90 27 137 41 91 27 322 69 485 87 55 6 106 15 112 21
19 15 16 103 -3 122 -15 16 -90 20 -169 9z"/>
<path d="M4113 5249 c-11 -14 -17 -54 -15 -100 3 -49 20 -58 137 -74 166 -22
471 -112 595 -175 50 -25 80 -14 80 29 0 16 3 42 6 58 8 39 -17 63 -95 94 -31
12 -94 40 -140 61 -116 54 -296 97 -482 114 -57 5 -77 3 -86 -7z"/>
<path d="M3635 5239 c-156 -23 -486 -121 -527 -157 -14 -12 -18 -31 -18 -84
l0 -68 30 0 c16 0 60 12 97 26 108 40 385 104 545 124 81 10 152 21 158 25 5
3 10 35 10 69 0 58 -2 64 -22 70 -32 8 -202 5 -273 -5z"/>
<path d="M6557 7018 c-7 -21 5 -495 14 -509 5 -8 49 -15 130 -20 68 -4 141
-11 164 -14 99 -15 258 -48 343 -72 60 -17 96 -23 103 -16 6 6 6 60 -1 154 -6
79 -14 191 -18 249 l-7 105 -90 32 c-133 46 -248 72 -403 88 -170 18 -228 19
-235 3z"/>
<path d="M6160 6984 c-157 -36 -407 -115 -512 -161 l-58 -26 0 -258 c0 -173 3
-259 10 -259 6 0 59 20 118 44 167 69 426 136 580 151 l72 7 -1 127 c-1 69 -4
189 -8 266 -6 130 -7 140 -26 142 -11 1 -90 -14 -175 -33z"/>
<path d="M6572 6049 l3 -274 130 -7 c148 -8 353 -43 514 -87 151 -42 145 -43
138 27 -3 31 -12 149 -19 261 l-12 204 -44 19 c-129 58 -373 106 -615 124
l-97 7 2 -274z"/>
<path d="M6105 6255 c-200 -48 -477 -143 -507 -172 -18 -19 -19 -31 -12 -271
6 -228 9 -252 24 -252 10 0 55 18 102 40 138 64 415 136 599 155 l66 6 -4 257
c-3 141 -6 263 -8 270 -7 21 -72 13 -260 -33z"/>
<path d="M6587 5594 c-4 -4 -7 -135 -7 -291 l0 -283 78 0 c166 0 433 -43 600
-97 81 -26 116 -33 124 -25 14 14 -20 532 -36 548 -13 14 -138 55 -254 84
-135 34 -490 79 -505 64z"/>
<path d="M6245 5569 c-268 -60 -488 -126 -628 -190 l-27 -12 0 -284 c0 -189 3
-283 10 -283 6 0 28 9 50 20 128 65 457 160 634 182 l99 12 -6 156 c-4 85 -7
212 -7 283 l0 127 -42 -1 c-24 -1 -61 -5 -83 -10z"/>
<path d="M4215 3081 c-99 -26 -191 -101 -233 -191 -23 -48 -27 -68 -27 -155 0
-95 2 -103 34 -163 76 -139 257 -236 380 -203 109 29 213 117 267 226 25 51
29 71 29 140 0 68 -5 89 -30 139 -64 128 -179 205 -314 212 -42 2 -89 0 -106
-5z m198 -184 c50 -38 76 -78 83 -129 8 -59 -10 -121 -49 -165 -39 -44 -82
-63 -142 -63 -53 0 -89 16 -126 57 -100 107 -82 246 41 314 53 29 146 22 193
-14z"/>
<path d="M5066 3072 c-9 -11 -27 -50 -40 -88 l-23 -69 -94 0 c-107 0 -143 -14
-152 -62 -5 -25 3 -36 64 -94 77 -75 76 -71 54 -198 -12 -68 -13 -88 -2 -109
27 -58 107 -52 193 14 l46 35 60 -40 c83 -56 121 -62 159 -25 34 32 37 65 14
140 -24 80 -21 91 50 165 55 56 65 73 65 102 0 52 -19 61 -138 67 l-106 5 -8
35 c-18 79 -29 110 -44 125 -21 21 -77 19 -98 -3z"/>
<path d="M5835 3071 c-9 -11 -27 -48 -40 -83 l-23 -63 -92 -2 c-80 -1 -95 -4
-116 -24 -44 -41 -34 -75 48 -151 l72 -67 -27 -88 c-32 -103 -34 -134 -9 -156
44 -40 129 -23 223 44 l30 21 22 -20 c32 -29 102 -62 132 -62 14 0 37 11 50
25 29 28 32 67 10 139 -24 78 -20 90 45 159 50 54 60 70 60 100 0 47 -14 54
-136 68 -54 6 -101 12 -105 14 -3 2 -11 30 -18 61 -21 91 -82 132 -126 85z"/>
<path d="M6608 3079 c-99 -23 -210 -106 -253 -188 -25 -49 -29 -119 -11 -188
22 -88 78 -193 124 -235 58 -53 97 -62 226 -54 127 7 193 32 245 92 58 66 101
181 101 271 0 54 -31 138 -69 184 -37 45 -129 94 -212 114 -71 16 -96 17 -151
4z m158 -173 c77 -37 114 -74 114 -115 0 -31 -45 -171 -63 -196 -11 -15 -19
-15 -53 -6 -57 16 -97 14 -153 -8 -27 -11 -52 -17 -55 -14 -3 4 -6 21 -6 39 0
18 -9 56 -20 84 -27 69 -26 139 2 175 23 29 110 75 143 75 11 0 52 -15 91 -34z"/>
<path d="M8279 3043 c-19 -5 -29 -44 -29 -108 l0 -42 -72 -7 c-81 -7 -108 -24
-108 -67 0 -37 27 -51 110 -58 41 -4 65 -11 66 -18 1 -7 2 -27 3 -43 1 -32 39
-80 64 -80 32 0 51 28 57 81 l5 54 50 -3 c63 -4 105 23 105 68 0 37 -21 48
-98 56 l-60 7 -6 68 c-9 89 -28 108 -87 92z"/>
<path d="M5145 1788 c-493 -12 -800 -39 -951 -83 -62 -18 -76 -33 -72 -76 5
-52 44 -68 200 -85 73 -7 190 -20 261 -29 478 -56 1400 -36 1986 42 102 14
128 21 153 41 21 18 28 32 26 50 -5 42 -46 63 -144 73 -49 5 -145 16 -214 24
-150 18 -592 43 -815 47 -88 2 -281 0 -430 -4z"/>
<path d="M3832 1693 c-44 -22 -52 -57 -20 -90 18 -18 36 -25 63 -25 47 0 65
18 67 67 2 61 -43 81 -110 48z"/>
</g>
</svg>
